<svg xmlns="http://www.w3.org/2000/svg" fill="none" viewBox="0 0 16 16">
  <path fill="#000" d="M6.375 7.0312H4.6563a.625.625 0 00-.625.625v4.4063a.625.625 0 00.625.625h6.7187a.625.625 0 00.625-.625V7.6562a.625.625 0 00-.625-.625H9.6875c-.6515 0-1.2402.2746-1.6563.7141-.416-.4395-1.0047-.714-1.6562-.714zm1.0313 4.4063h-2.125V8.2812H6.375c.5686 0 1.0313.4627 1.0313 1.0313v2.125zm1.25-2.125c0-.5686.4626-1.0313 1.0312-1.0313H10.75v3.1563H8.6562v-2.125zM15.733 5.269L8.3581.1128a.625.625 0 00-.7162 0L.2669 5.269a.625.625 0 10.7163 1.0244l.5793-.405v9.4865a.625.625 0 00.625.625h11.625a.625.625 0 00.625-.625V5.8884l.5793.405a.6244.6244 0 00.8704-.154.625.625 0 00-.1541-.8704zm-2.5456 9.4809H2.8125V5.0144L8 1.3876l5.1875 3.6268V14.75z"/>
</svg>