<svg xmlns="http://www.w3.org/2000/svg" fill="none" viewBox="0 0 24 24">
  <path fill="#BDBDBD" fill-rule="evenodd" d="M21.1114 12.9353l2.4276 1.8602a.9376.9376 0 01.2371 1.2207l-2.3509 3.9833a.9375.9375 0 01-1.1509.3958l-2.8803-1.1344a9.1653 9.1653 0 01-1.6829.9535l-.4324 2.9826a.9376.9376 0 01-.9278.803H9.6491a.9375.9375 0 01-.9278-.803l-.4323-2.9827a9.1591 9.1591 0 01-1.683-.9534l-2.8803 1.1343a.9375.9375 0 01-1.1509-.3957L.224 16.0161a.9375.9375 0 01.2371-1.2207l2.4276-1.8601a8.8368 8.8368 0 010-1.8706L.461 9.2046a.9375.9375 0 01-.2372-1.2207l2.351-3.9833a.9374.9374 0 011.1509-.3958L6.606 4.7392a9.1652 9.1652 0 011.683-.9535L8.7214.8031A.9374.9374 0 019.649 0h4.7018c.4658 0 .8609.342.9278.803l.4324 2.9827a9.1663 9.1663 0 011.683.9535l2.8802-1.1344a.9374.9374 0 011.1509.3957l2.3509 3.9834a.9375.9375 0 01-.2371 1.2207l-2.4276 1.8601a8.8388 8.8388 0 010 1.8706zM7 12c0-2.757 2.243-5 5-5 2.7571 0 5 2.243 5 5s-2.243 5-5 5-5-2.243-5-5zm2.5 0c0 1.3785 1.1215 2.5 2.5 2.5s2.5-1.1215 2.5-2.5-1.1215-2.5-2.5-2.5-2.5 1.1215-2.5 2.5z" clip-rule="evenodd"/>
</svg>