<svg
    xmlns="http://www.w3.org/2000/svg"
    fill="none"
    viewBox="0 0 16 16"
    >
    <path
        fill="#999"
        d="M15.9023 14.9597l-4.6478-4.6479c.8815-1.0884 1.4122-2.472 1.4122-3.9784C12.6667 2.8412 9.8255 0 6.3333 0S0 2.8412 0 6.3334c0 3.4921 2.8412 6.3333 6.3334 6.3333 1.5064 0 2.89-.5307 3.9784-1.4122l4.6479 4.6479a.3335.3335 0 00.4714 0l.4713-.4713a.3334.3334 0 00-.0001-.4714zm-9.569-3.6263c-2.7571 0-5-2.2429-5-5 0-2.7572 2.2429-5 5-5 2.7572 0 5.0001 2.2428 5.0001 5 0 2.7571-2.2429 5-5 5z"
    />
</svg>