<svg xmlns="http://www.w3.org/2000/svg" fill="none" viewBox="0 0 24 24">
  <defs/>
  <path fill="#BDBDBD" d="M12 0C5.368 0 0 5.367 0 12c0 6.6321 5.367 12 12 12 6.6321 0 12-5.367 12-12 0-6.632-5.367-12-12-12z"/>
  <path fill="#fff" d="M12 18.9141c.6472 0 1.1719-.5247 1.1719-1.1719 0-.6472-.5247-1.1719-1.1719-1.1719-.6472 0-1.1719.5247-1.1719 1.1719 0 .6472.5247 1.1719 1.1719 1.1719zM12 6.0234c-2.0678 0-3.75 1.6823-3.75 3.75 0 .5178.4197.9375.9375.9375a.9375.9375 0 00.9375-.9375c0-1.0338.8411-1.875 1.875-1.875s1.875.8412 1.875 1.875c0 1.0339-.8411 1.875-1.875 1.875a.9375.9375 0 00-.9375.9375v2.3438c0 .5178.4197.9375.9375.9375a.9375.9375 0 00.9375-.9375v-1.5249c1.6156-.4173 2.8125-1.8872 2.8125-3.6314 0-2.0677-1.6823-3.75-3.75-3.75z"/>
</svg>