<svg xmlns="http://www.w3.org/2000/svg" fill="none" viewBox="0 0 16 16">
  <path fill="#000" d="M8 0C3.5786 0 0 3.578 0 8c0 4.4214 3.578 8 8 8 4.4214 0 8-3.578 8-8 0-4.4214-3.578-8-8-8zm4.0625 13.3916V9.25a.625.625 0 10-1.25 0v4.8895a6.6966 6.6966 0 01-2.1875.5817v-4.5337a.625.625 0 10-1.25 0v4.5337a6.6965 6.6965 0 01-2.1875-.5817v-3.952a.625.625 0 10-1.25 0v3.2041c-1.0364-.7842-1.8545-1.8646-2.3046-3.1406l1.626-1.626H8a.625.625 0 00.442-.1831l2.3705-2.3705v.9911a.625.625 0 101.25 0v-2.5c0-.3434-.2813-.625-.625-.625h-2.5a.625.625 0 100 1.25h.991L7.7412 7.375H3a.625.625 0 00-.442.1831L1.2988 8.8173A6.873 6.873 0 011.25 8c0-3.7306 3.019-6.75 6.75-6.75 3.7306 0 6.75 3.019 6.75 6.75 0 2.1746-1.0205 4.1301-2.6875 5.3916z"/>
</svg>