<svg xmlns="http://www.w3.org/2000/svg" fill="none" viewBox="0 0 24 24">
  <path fill="#BDBDBD" d="M12 0C5.368 0 0 5.367 0 12c0 2.1048.549 4.1605 1.5914 5.9736L.0452 22.775a.9374.9374 0 001.1798 1.1798l4.8014-1.5462C7.8394 23.451 9.8952 24 12 24c6.6321 0 12-5.367 12-12 0-6.632-5.367-12-12-12zm1.1719 12c0 .6471-.5246 1.1719-1.1719 1.1719S10.8281 12.6471 10.8281 12c0-.6473.5246-1.1719 1.1719-1.1719s1.1719.5246 1.1719 1.1719zm4.6875 0c0 .6471-.5246 1.1719-1.1719 1.1719S15.5156 12.6471 15.5156 12c0-.6473.5246-1.1719 1.1719-1.1719s1.1719.5246 1.1719 1.1719zm-9.375 0c0 .6471-.5246 1.1719-1.1719 1.1719-.647 0-1.1719-.5248-1.1719-1.1719 0-.6473.5248-1.1719 1.1719-1.1719.6473 0 1.1719.5246 1.1719 1.1719z"/>
</svg>