<svg xmlns="http://www.w3.org/2000/svg" fill="none" viewBox="0 0 16 16">
  <defs/>
  <path fill="#000" d="M14.2218 11.6038c.705-.5702 1.1566-1.4418 1.1566-2.417 0-1.7135-1.394-3.1076-3.1075-3.1076-.354 0-.6942.0596-1.0114.169a4.9068 4.9068 0 00-1.1932-.7852c.6418-.5697 1.0471-1.4004 1.0471-2.324 0-1.7137-1.394-3.1077-3.1075-3.1077-1.7137 0-3.1077 1.394-3.1077 3.1076 0 .9218.4036 1.751 1.043 2.3206a4.9098 4.9098 0 00-1.2.788 3.111 3.111 0 00-1.012-.1683C2.0066 6.0792.6052 7.4805.6052 9.203c0 .973.4473 1.8435 1.147 2.4169C.7007 12.28 0 13.4498 0 14.7805v.5403c0 .3433.2782.6215.6216.6215h14.7568A.6215.6215 0 0016 15.3208v-.5403c0-1.3414-.7122-2.5196-1.7782-3.1767zm-.0864-2.417c0 1.0282-.8364 1.8646-1.8645 1.8646-1.0282 0-1.8647-.8364-1.8647-1.8645 0-1.0282.8365-1.8646 1.8647-1.8646 1.0281 0 1.8645.8364 1.8645 1.8646zM8.0059 1.2744c1.028 0 1.8646.8364 1.8646 1.8646 0 1.028-.8366 1.8645-1.8646 1.8645-1.0281 0-1.8647-.8364-1.8647-1.8645 0-1.0282.8366-1.8646 1.8647-1.8646zm2.1274 5.659c-.5972.5666-.97 1.3674-.97 2.2536 0 .9751.4516 1.8467 1.1565 2.4169-1.0444.6438-1.749 1.7877-1.777 3.0954H7.4572c-.028-1.2969-.7212-2.4327-1.7514-3.0793.6997-.5734 1.147-1.4439 1.147-2.4169 0-.8945-.378-1.7023-.9825-2.2723 1.2639-.9141 2.9997-.9132 4.2629.0025zM1.8483 9.203c0-1.0371.8438-1.8807 1.8808-1.8807 1.0371 0 1.8808.8436 1.8808 1.8807 0 .9403-.6938 1.7217-1.5962 1.8591a3.8297 3.8297 0 00-.569 0c-.9026-.1374-1.5963-.9188-1.5963-1.8591zm-.604 5.4962c.0399-1.234.9837-2.243 2.1893-2.3866.0973.0092.1958.0142.2955.0142.0998 0 .1983-.005.2957-.0142 1.2055.1437 2.1493 1.1526 2.1892 2.3866H1.2444zm8.5417 0c.0431-1.3334 1.1412-2.4048 2.4849-2.4048 1.3436 0 2.4417 1.0714 2.4847 2.4048H9.786z"/>
</svg>