<svg xmlns="http://www.w3.org/2000/svg" fill="none" viewBox="0 0 13 16">
  <defs/>
  <path fill="#000" d="M11.2529 4.3727c-.2113-.5098-.063-1.5173-.7107-2.165-.6489-.6489-1.6533-.4986-2.1648-.7106C7.9038 1.3004 7.279.4687 6.3438.4687c-.9333 0-1.5632.833-2.0335 1.0282-.5098.2114-1.5173.063-2.165.7107-.649.649-.4988 1.6537-.7106 2.1647C1.2379 4.8461.4062 5.471.4062 6.406s.8318 1.5602 1.0284 2.0333c.2113.5098.063 1.5174.7107 2.1651.141.1411.2967.2408.4484.3136v4.9251c0 .4637.489.7668.9046.559l2.8455-1.4227 2.8454 1.4227c.415.2074.9046-.0948.9046-.559V10.918c.1517-.0728.3073-.1725.4484-.3136.649-.649.4987-1.6538.7107-2.1648.1964-.4734 1.0283-1.0985 1.0283-2.0336 0-.9332-.8332-1.5636-1.0283-2.0333zM8.8437 14.8319l-2.2204-1.1102a.625.625 0 00-.559 0l-2.2206 1.1102v-3.6261c.1792.0267.3426.0577.4664.1091.4735.1966 1.0986 1.0284 2.0336 1.0284.9333 0 1.5636-.8333 2.0335-1.0282.1239-.0514.2873-.0826.4665-.1093v3.6261zm1.2546-6.8713c-.2675.6451-.197 1.517-.44 1.7599-.245.245-1.1082.1698-1.7601.4399-.6393.2654-1.1798.9329-1.5545.9329-.3743 0-.915-.6674-1.5546-.933-.6556-.2717-1.513-.1929-1.76-.4398-.2437-.244-.1708-1.1113-.44-1.7603-.2654-.639-.9329-1.1797-.9329-1.5542 0-.3744.6675-.915.933-1.5547.2675-.645.197-1.5168.44-1.7598.2437-.2437 1.111-.1708 1.7601-.44.6393-.2653 1.1798-.9327 1.5545-.9327.3743 0 .915.6673 1.5546.9328.6452.2675 1.517.197 1.76.44.2438.2437.1708 1.111.44 1.76.2654.6392.9328 1.1799.9328 1.5544 0 .3744-.6674.915-.9329 1.5546z"/>
</svg>