<svg xmlns="http://www.w3.org/2000/svg" fill="none" viewBox="0 0 16 14">
  <path fill="#999" d="M14.7307 1.37C13.9025.4867 12.766 0 11.5304 0c-.9236 0-1.7694.2872-2.514.8535-.3758.2858-.7162.6356-1.0164 1.0438-.3-.4081-.6406-.758-1.0165-1.0438C6.239.2872 5.3932 0 4.4696 0 3.234 0 2.0974.4866 1.2692 1.37.4508 2.2434 0 3.4362 0 4.7292c0 1.3309.5043 2.549 1.587 3.834.9684 1.1492 2.3604 2.3159 3.9723 3.6669.5504.4614 1.1743.9844 1.8222 1.5414A.9476.9476 0 008 14a.948.948 0 00.6183-.2283c.6478-.5572 1.272-1.0804 1.8227-1.542 1.6117-1.3508 3.0037-2.5174 3.9722-3.6668C15.4958 7.2782 16 6.0599 16 4.729c0-1.2929-.4508-2.4857-1.2693-3.359z"/>
</svg>