<?xml version="1.0" encoding="UTF-8"?>
<svg width="359px" height="270px" viewBox="0 0 359 270" version="1.1" xmlns="http://www.w3.org/2000/svg" xmlns:xlink="http://www.w3.org/1999/xlink">
    <!-- Generator: Sketch 59.1 (86144) - https://sketch.com -->
    <title>e</title>
    <desc>Created with Sketch.</desc>
    <g id="Page-1" stroke="none" stroke-width="1" fill="none" fill-rule="evenodd">
        <g id="logo" transform="translate(-1.000000, 0.000000)" fill="#FFFFFF" fill-rule="nonzero">
            <path d="M68.1925438,156.125954 C68.5371321,163.683244 70.3461937,170.639281 73.6197828,176.994275 C76.893372,183.349268 81.3729531,188.845397 87.0586606,193.482824 C92.7443681,198.120252 99.2914482,201.727086 106.700097,204.303435 C114.108746,206.879784 121.948013,208.167939 130.218133,208.167939 C146.413785,208.167939 158.818779,205.333998 167.433487,199.666031 C176.048195,193.998063 182.250692,187.21378 186.041164,179.312977 L241.864195,210.229008 C238.7629,216.755758 234.45561,223.540041 228.942197,230.582061 C223.428784,237.624081 216.278683,244.064856 207.49168,249.90458 C198.704678,255.744304 188.0226,260.553416 175.445126,264.332061 C162.867652,268.110706 148.136721,270 131.251893,270 C111.954947,270 94.3812053,266.908428 78.530142,260.725191 C62.6790788,254.541954 48.981898,245.610745 37.4381889,233.931298 C25.8944798,222.25185 16.9353175,207.996267 10.5604334,191.164122 C4.18554924,174.331977 0.998154982,155.267282 0.998154982,133.969466 L0.998154982,130.877863 C0.998154982,111.297612 4.35784082,93.4351952 11.0773133,77.2900763 C17.7967858,61.1449574 27.0143854,47.4046368 38.7303887,36.0687023 C50.446392,24.7327677 64.1435727,15.8874364 79.8223418,9.53244275 C95.5011109,3.17744914 112.29954,0 130.218133,0 C152.271787,0 171.223861,3.86446517 187.074924,11.5935115 C202.925987,19.3225191 216.020147,29.1125362 226.357797,40.9637405 C236.695447,52.8149448 244.276277,65.8682493 249.100514,80.1240458 C253.92475,94.3798423 256.336832,108.20604 256.336832,121.603053 L256.336832,156.125954 L68.1925438,156.125954 Z M129.701253,58.740458 C113.161014,58.740458 99.7222702,62.9484312 89.3846202,71.3645038 C79.0469702,79.7805764 72.3275986,89.4846779 69.2263036,100.477099 L190.176203,100.477099 C188.108673,88.4541384 181.647739,78.4924059 170.793207,70.5916031 C159.938674,62.6908002 146.241493,58.740458 129.701253,58.740458 Z M359.669742,224.527672 C359.669742,230.825413 358.485237,236.729457 356.116192,242.239981 C353.747148,247.750505 350.509502,252.47374 346.403157,256.409828 C342.296813,260.345917 337.479827,263.49474 331.952056,265.856393 C326.424285,268.218046 320.659696,269.398855 314.658116,269.398855 C308.340663,269.398855 302.497107,268.218046 297.127272,265.856393 C291.757437,263.49474 287.019419,260.345917 282.913075,256.409828 C278.80673,252.47374 275.569084,247.750505 273.200039,242.239981 C270.830995,236.729457 269.64649,230.825413 269.64649,224.527672 C269.64649,218.22993 270.830995,212.325886 273.200039,206.815363 C275.569084,201.304839 278.80673,196.581604 282.913075,192.645515 C287.019419,188.709427 291.757437,185.560603 297.127272,183.19895 C302.497107,180.837297 308.340663,179.656489 314.658116,179.656489 C320.659696,179.656489 326.424285,180.837297 331.952056,183.19895 C337.479827,185.560603 342.296813,188.709427 346.403157,192.645515 C350.509502,196.581604 353.747148,201.304839 356.116192,206.815363 C358.485237,212.325886 359.669742,218.22993 359.669742,224.527672 Z" id="e."></path>
        </g>
    </g>
</svg>