<?xml version="1.0" encoding="UTF-8"?>
<svg width="359px" height="270px" viewBox="0 0 359 270" version="1.1" xmlns="http://www.w3.org/2000/svg" xmlns:xlink="http://www.w3.org/1999/xlink">
    <!-- Generator: Sketch 59.1 (86144) - https://sketch.com -->
    <title>e</title>
    <desc>Created with Sketch.</desc>
    <defs>
        <linearGradient x1="19.3710375%" y1="34.7689863%" x2="100%" y2="78.3337191%" id="linearGradient-1">
            <stop stop-color="#000000" offset="0%"></stop>
            <stop stop-color="#3E3F43" offset="100%"></stop>
        </linearGradient>
    </defs>
    <g id="Page-1" stroke="none" stroke-width="1" fill="none" fill-rule="evenodd">
        <g id="Group" transform="translate(-249.000000, -265.000000)" fill="url(#linearGradient-1)" fill-rule="nonzero">
            <g id="logo" transform="translate(248.500000, 265.000000)">
                <path d="M67.6925438,156.125954 C68.0371321,163.683244 69.8461937,170.639281 73.1197828,176.994275 C76.393372,183.349268 80.8729531,188.845397 86.5586606,193.482824 C92.2443681,198.120252 98.7914482,201.727086 106.200097,204.303435 C113.608746,206.879784 121.448013,208.167939 129.718133,208.167939 C145.913785,208.167939 158.318779,205.333998 166.933487,199.666031 C175.548195,193.998063 181.750692,187.21378 185.541164,179.312977 L241.364195,210.229008 C238.2629,216.755758 233.95561,223.540041 228.442197,230.582061 C222.928784,237.624081 215.778683,244.064856 206.99168,249.90458 C198.204678,255.744304 187.5226,260.553416 174.945126,264.332061 C162.367652,268.110706 147.636721,270 130.751893,270 C111.454947,270 93.8812053,266.908428 78.030142,260.725191 C62.1790788,254.541954 48.481898,245.610745 36.9381889,233.931298 C25.3944798,222.25185 16.4353175,207.996267 10.0604334,191.164122 C3.68554924,174.331977 0.498154982,155.267282 0.498154982,133.969466 L0.498154982,130.877863 C0.498154982,111.297612 3.85784082,93.4351952 10.5773133,77.2900763 C17.2967858,61.1449574 26.5143854,47.4046368 38.2303887,36.0687023 C49.946392,24.7327677 63.6435727,15.8874364 79.3223418,9.53244275 C95.0011109,3.17744914 111.79954,0 129.718133,0 C151.771787,0 170.723861,3.86446517 186.574924,11.5935115 C202.425987,19.3225191 215.520147,29.1125362 225.857797,40.9637405 C236.195447,52.8149448 243.776277,65.8682493 248.600514,80.1240458 C253.42475,94.3798423 255.836832,108.20604 255.836832,121.603053 L255.836832,156.125954 L67.6925438,156.125954 Z M129.201253,58.740458 C112.661014,58.740458 99.2222702,62.9484312 88.8846202,71.3645038 C78.5469702,79.7805764 71.8275986,89.4846779 68.7263036,100.477099 L189.676203,100.477099 C187.608673,88.4541384 181.147739,78.4924059 170.293207,70.5916031 C159.438674,62.6908002 145.741493,58.740458 129.201253,58.740458 Z M359.169742,224.527672 C359.169742,230.825413 357.985237,236.729457 355.616192,242.239981 C353.247148,247.750505 350.009502,252.47374 345.903157,256.409828 C341.796813,260.345917 336.979827,263.49474 331.452056,265.856393 C325.924285,268.218046 320.159696,269.398855 314.158116,269.398855 C307.840663,269.398855 301.997107,268.218046 296.627272,265.856393 C291.257437,263.49474 286.519419,260.345917 282.413075,256.409828 C278.30673,252.47374 275.069084,247.750505 272.700039,242.239981 C270.330995,236.729457 269.14649,230.825413 269.14649,224.527672 C269.14649,218.22993 270.330995,212.325886 272.700039,206.815363 C275.069084,201.304839 278.30673,196.581604 282.413075,192.645515 C286.519419,188.709427 291.257437,185.560603 296.627272,183.19895 C301.997107,180.837297 307.840663,179.656489 314.158116,179.656489 C320.159696,179.656489 325.924285,180.837297 331.452056,183.19895 C336.979827,185.560603 341.796813,188.709427 345.903157,192.645515 C350.009502,196.581604 353.247148,201.304839 355.616192,206.815363 C357.985237,212.325886 359.169742,218.22993 359.169742,224.527672 Z" id="e."></path>
            </g>
        </g>
    </g>
</svg>