<svg width="290" height="290" xmlns="http://www.w3.org/2000/svg">
 <!-- Created with Method Draw - http://github.com/duopixel/Method-Draw/ -->
 <g>
  <title>background</title>
  <rect fill="none" id="canvas_background" height="292" width="292" y="-1" x="-1"/>
  <g display="none" overflow="visible" y="0" x="0" height="100%" width="100%" id="canvasGrid">
   <rect fill="url(#gridpattern)" stroke-width="0" y="0" x="0" height="100%" width="100%"/>
  </g>
 </g>
 <g>
  <title>Layer 1</title>
  <ellipse stroke="#000" ry="126.201541" rx="126" id="svg_1" cy="145.458659" cx="145" stroke-width="36.5" fill="#828280"/>
  <path stroke="#000" transform="rotate(128.25071716308594 144.66131591796875,56.99356079101563) " id="svg_4" d="m122.233587,52.911161c-5.913866,6.604343 -0.369616,22.748276 3.326545,24.215904c3.69617,1.467628 15.339098,6.237427 30.123767,-1.467628c14.784661,-7.705064 14.045429,-41.460558 13.971511,-41.607327c0.036959,0.073385 -14.221006,4.100194 -24.052813,7.650032c-9.831798,3.549829 -20.412082,7.906857 -23.36901,11.20902z" stroke-width="2.5" fill="#f9b909"/>
  <path stroke="#000" transform="rotate(-173.40052795410156 89.779541015625,204.1924743652344) " id="svg_5" d="m69.410769,200.147212c-5.370946,6.54428 -0.335684,22.541392 3.021153,23.995673c3.356844,1.454281 13.930898,6.180701 27.358266,-1.454281c13.427361,-7.63499 12.755993,-41.083496 12.688861,-41.228931c0.033566,0.072717 -12.915451,4.062905 -21.844653,7.580459c-8.929194,3.517545 -18.538158,7.834948 -21.223627,11.10708z" stroke-width="2.5" fill="#f9b909"/>
  <path stroke="#000" transform="rotate(134.16464233398438 145.48513793945315,227.29483032226557) " id="svg_6" d="m124.623954,223.472062c-5.50079,6.184329 -0.343799,21.301564 3.09419,22.675855c3.437997,1.374292 14.267682,5.840748 28.019662,-1.374292c13.751972,-7.215048 13.064374,-38.823809 12.995619,-38.961244c0.034377,0.068718 -13.227687,3.839436 -22.372755,7.163516c-9.14506,3.324072 -18.986324,7.404008 -21.736716,10.496165z" stroke-width="2.5" fill="#f9b909"/>
  <path stroke="#000" transform="rotate(46 203.74572753906253,199.1490478515625) " id="svg_7" d="m183.082668,195.433019c-5.448543,6.011678 -0.340533,20.706877 3.064801,22.042802c3.405342,1.335925 14.132164,5.677689 27.753525,-1.335925c13.621352,-7.013622 12.940286,-37.739945 12.872184,-37.873543c0.034051,0.066799 -13.102047,3.732248 -22.160254,6.963528c-9.058198,3.231272 -18.805988,7.197307 -21.530255,10.203138z" stroke-width="2.5" fill="#f9b909"/>
  <path stroke="#000" transform="rotate(-136 118.87864685058594,150.51446533203128) " id="svg_8" d="m109.647487,148.384393c-2.434121,3.445939 -0.152132,11.869337 1.369191,12.635099c1.521327,0.765762 6.313503,3.254494 12.398806,-0.765762c6.0853,-4.020261 5.781035,-21.632819 5.750611,-21.709399c0.015212,0.03829 -5.853302,2.139353 -9.900029,3.991547c-4.046724,1.85219 -8.40152,4.12555 -9.618579,5.848515z" stroke-width="2.5" fill="#f9b909"/>
  <path stroke="#000" transform="rotate(162.71450805664062 212.77154541015625,79.7866668701172) " id="svg_9" d="m191.389427,75.823483c-5.638151,6.411475 -0.352384,22.083955 3.171455,23.508724c3.523847,1.424769 14.623961,6.055275 28.719341,-1.424769c14.095372,-7.480052 13.390605,-40.24978 13.320133,-40.392264c0.035236,0.071242 -13.557996,3.980455 -22.931426,7.426627c-9.373422,3.446163 -19.460432,7.675952 -22.279503,10.881682z" stroke-width="2.5" fill="#f9b909"/>
  <path stroke="#000" transform="rotate(97.42555236816406 81.43695068359376,76.42185974121094) " id="svg_10" d="m59.43625,72.42103c-5.801266,6.47239 -0.362579,22.293771 3.263207,23.732076c3.625794,1.438305 15.047042,6.112805 29.550211,-1.438305c14.503161,-7.551119 13.778004,-40.632187 13.705493,-40.776024c0.036255,0.071919 -13.950238,4.018273 -23.594847,7.497186c-9.644601,3.478905 -20.023436,7.74888 -22.924065,10.985067z" stroke-width="2.5" fill="#f9b909"/>
  <path stroke="#000" transform="rotate(-177 164.96197509765625,114.84439086914064) " id="svg_11" d="m155.73084,112.714315c-2.43412,3.44594 -0.15213,11.86933 1.36919,12.6351c1.52133,0.76576 6.3135,3.25449 12.39881,-0.76577c6.0853,-4.02026 5.78103,-21.63281 5.75061,-21.70939c0.01521,0.03829 -5.85331,2.13935 -9.90003,3.99154c-4.04673,1.85219 -8.40152,4.12555 -9.61858,5.84852z" stroke-width="2.5" fill="#f9b909"/>
  <path stroke="#000" transform="rotate(122 129.8231201171875,110.95986938476564) " id="svg_12" d="m120.591947,108.829794c-2.43412,3.44594 -0.15213,11.86933 1.36919,12.6351c1.52133,0.76576 6.3135,3.25449 12.39881,-0.76577c6.0853,-4.02026 5.78103,-21.63281 5.75061,-21.70939c0.01521,0.03829 -5.85331,2.13935 -9.90003,3.99154c-4.04673,1.85219 -8.40152,4.12555 -9.61858,5.84852z" stroke-width="2.5" fill="#f9b909"/>
  <path stroke="#000" transform="rotate(62.09379959106445 170.7359619140625,149.61163330078128) " id="svg_13" d="m161.50479,147.481567c-2.43412,3.44594 -0.15213,11.86933 1.36919,12.6351c1.52133,0.76576 6.3135,3.25449 12.39881,-0.76577c6.0853,-4.02026 5.78103,-21.63281 5.75061,-21.70939c0.01521,0.03829 -5.85331,2.13935 -9.90003,3.99154c-4.04673,1.85219 -8.40152,4.12555 -9.61858,5.84852z" stroke-width="2.5" fill="#f9b909"/>
  <path id="svg_14" d="m140.18695,131.03418c-0.766284,12.260539 -0.766284,47.89273 -0.766284,47.89273c0,0 -0.383142,5.747128 -3.065135,5.747128c-2.681993,0 11.494255,0.383142 11.494255,0.383142c0,0 -1.915709,-54.023 0.766284,-54.789284c2.681993,-0.766284 -7.662837,-11.494255 -8.429121,0.766284z" stroke-width="2.5" stroke="#000" fill="#f9b909"/>
 </g>
</svg>